<?xml version="1.0" encoding="UTF-8"?>
<svg xmlns="http://www.w3.org/2000/svg" width="1024" height="1025" viewBox="0 0 1024 1025">
  <path d="M 358 338 L 328 390 L 303 473 L 261 512 L 241 548 L 231 581 L 231 661 L 243 699 L 271 744 L 271 846 L 404 846 L 405 785 L 842 785 L 843 846 L 977 846 L 977 744 L 1005 698 L 1017 660 L 1017 581 L 988 514 L 943 471 L 923 399 L 903 357 L 865 312 L 819 287 L 436 287 L 396 302 Z M 456 651 L 459 640 L 469 637 L 779 637 L 787 638 L 791 641 L 793 659 L 789 663 L 759 666 L 491 666 L 460 663 L 456 659 Z M 456 604 L 458 595 L 462 592 L 467 591 L 774 591 L 787 592 L 791 595 L 792 613 L 787 619 L 784 620 L 753 621 L 480 620 L 459 617 L 456 614 Z M 876 567 L 890 567 L 891 568 L 895 568 L 896 569 L 902 570 L 910 574 L 916 579 L 917 579 L 927 589 L 927 590 L 930 593 L 936 606 L 936 617 L 937 618 L 937 622 L 936 623 L 936 634 L 935 635 L 935 638 L 932 643 L 932 645 L 930 647 L 929 650 L 927 652 L 927 653 L 914 665 L 909 667 L 907 669 L 903 671 L 901 671 L 897 673 L 893 673 L 892 674 L 875 674 L 874 673 L 869 673 L 868 672 L 865 672 L 856 667 L 852 663 L 851 663 L 838 649 L 834 642 L 834 640 L 832 636 L 832 631 L 831 630 L 831 616 L 832 615 L 832 609 L 833 608 L 834 601 L 840 590 L 850 579 L 851 579 L 857 574 L 865 570 L 867 570 L 871 568 L 875 568 Z M 354 567 L 360 567 L 361 566 L 364 566 L 365 567 L 373 567 L 377 569 L 380 569 L 388 573 L 390 575 L 393 576 L 397 580 L 398 580 L 409 592 L 410 595 L 412 597 L 416 605 L 416 608 L 417 609 L 417 614 L 418 615 L 418 628 L 417 629 L 417 634 L 411 647 L 409 649 L 407 653 L 393 666 L 383 671 L 381 671 L 377 673 L 374 673 L 373 674 L 354 674 L 353 673 L 350 673 L 349 672 L 344 671 L 333 665 L 320 651 L 319 648 L 317 646 L 314 640 L 314 638 L 312 635 L 312 632 L 311 631 L 311 613 L 312 612 L 312 608 L 313 607 L 314 602 L 319 592 L 321 590 L 323 586 L 331 578 L 332 578 L 338 573 L 342 571 L 344 571 L 347 569 L 353 568 Z M 736 455 L 739 449 L 739 447 L 740 446 L 741 441 L 743 438 L 743 436 L 746 430 L 748 428 L 748 427 L 750 425 L 752 421 L 764 409 L 767 408 L 769 406 L 777 402 L 779 402 L 780 401 L 783 401 L 784 400 L 790 400 L 791 399 L 797 399 L 798 400 L 804 400 L 805 401 L 808 401 L 809 402 L 814 403 L 818 406 L 824 409 L 830 415 L 831 415 L 837 422 L 837 423 L 840 426 L 841 429 L 843 431 L 850 445 L 850 447 L 851 448 L 851 451 L 852 452 L 852 455 L 851 456 L 737 456 Z M 348 453 L 366 403 L 385 368 L 408 343 L 438 327 L 810 326 L 842 345 L 864 370 L 883 405 L 899 455 L 893 458 L 880 457 L 868 424 L 851 398 L 832 383 L 803 374 L 774 376 L 743 393 L 723 417 L 715 434 L 710 456 L 349 457 Z" fill="#cb2027" fill-rule="evenodd"/><path d="M 134 180 L 3 314 L 3 347 L 134 477 L 276 466 L 280 324 Z M 89 267 L 103 280 L 122 272 L 143 273 L 150 276 L 164 287 L 147 307 L 132 301 L 122 302 L 115 306 L 105 321 L 105 329 L 111 337 L 121 338 L 166 318 L 190 317 L 201 321 L 220 338 L 227 350 L 231 364 L 229 381 L 221 398 L 235 412 L 222 426 L 218 428 L 203 414 L 186 422 L 167 422 L 149 415 L 136 405 L 151 384 L 165 391 L 181 392 L 190 388 L 197 381 L 202 369 L 202 364 L 199 356 L 191 348 L 179 348 L 145 364 L 128 369 L 118 369 L 106 365 L 96 359 L 88 351 L 80 338 L 77 324 L 79 311 L 86 295 L 73 282 Z" fill="#cb2027" fill-rule="evenodd"/>
</svg>
